<?xml version="1.0" encoding="UTF-8"?>
<svg width="55px" height="55px" viewBox="0 0 55 55" version="1.1" xmlns="http://www.w3.org/2000/svg" xmlns:xlink="http://www.w3.org/1999/xlink">
    <!-- Generator: Sketch 51.1 (57501) - http://www.bohemiancoding.com/sketch -->
    <title>toolbar_element_js</title>
    <desc>Created with Sketch.</desc>
    <defs></defs>
    <g id="toolbar_element_js" stroke="none" stroke-width="1" fill="none" fill-rule="evenodd">
        <rect id="Rectangle-3" stroke="#4A4A4A" x="4.5" y="7.5" width="23" height="12" rx="3"></rect>
        <rect id="Rectangle" stroke="#4A4A4A" transform="translate(31.535534, 13.535534) rotate(45.000000) translate(-31.535534, -13.535534) " x="29.5355339" y="11.5355339" width="4" height="4"></rect>
        <g id="Group" transform="translate(7.000000, 13.000000)" stroke="#4A4A4A">
            <path d="M27.0500282,0 L33,-4.4408921e-16 C35.209139,-8.49901461e-16 37,1.790861 37,4 L37,8.62216602 C37,10.831305 35.209139,12.622166 33,12.622166 L4,12.622166 C1.790861,12.622166 -2.705415e-16,14.413027 0,16.622166 L0,19 C2.705415e-16,21.209139 1.790861,23 4,23 L15.3651273,23" id="Line" stroke-linecap="square"></path>
            <path d="M16,22.6666667 L12,21" id="Line-2" stroke-linecap="round" stroke-linejoin="round"></path>
            <path d="M16,23 L12,25" id="Line-2" stroke-linecap="round" stroke-linejoin="round"></path>
        </g>
        <path d="M31.5,30.5 L27,30.5 C25.6192881,30.5 24.5,31.6192881 24.5,33 L24.5,40 C24.5,41.3807119 25.6192881,42.5 27,42.5 L31.5,42.5 L31.5,30.5 Z" id="Combined-Shape" stroke="#4A4A4A"></path>
        <text id="JS" font-family="AvenirNextCondensed-DemiBold, Avenir Next Condensed" font-size="18" font-style="condensed" font-weight="500" fill="#4A4A4A">
            <tspan x="34.715" y="51">JS</tspan>
        </text>
        <rect id="Rectangle-4" stroke="#4A4A4A" stroke-width="2" x="32" y="28" width="20" height="25"></rect>
    </g>
</svg>