<?xml version="1.0" encoding="UTF-8" standalone="no"?>
<svg width="64px" height="64px" viewBox="0 0 64 64" version="1.1" xmlns="http://www.w3.org/2000/svg" xmlns:xlink="http://www.w3.org/1999/xlink">
    <!-- Generator: Sketch 39.1 (31720) - http://www.bohemiancoding.com/sketch -->
    <title>edit</title>
    <desc>Created with Sketch.</desc>
    <defs>
        <path d="M57.3848776,58.8146071 C57.2211062,58.8572799 57.0488239,58.88 56.8706613,58.88 L7.12933875,58.88 C6.0196116,58.88 5.12,57.9917482 5.12,56.8706613 L5.12,7.12933875 C5.12,6.0196116 6.00825184,5.12 7.12933875,5.12 L31.3391841,5.12 L20.4999691,15.5856239 C20.0939822,15.4395823 19.6562848,15.36 19.2,15.36 C17.0792266,15.36 15.36,17.0792266 15.36,19.2 C15.36,21.3207734 17.0792266,23.04 19.2,23.04 C21.3207734,23.04 23.04,21.3207734 23.04,19.2 C23.04,18.9707425 23.0199095,18.7461774 22.9813929,18.5279692 L36.867986,5.12 L56.8706613,5.12 C57.9803884,5.12 58.88,6.00825184 58.88,7.12933875 L58.88,54.8342989 L49.335162,44.9487391 L48.584922,44.1717178 C48.6211358,43.9598942 48.64,43.7421501 48.64,43.52 C48.64,41.3992266 46.9207734,39.68 44.8,39.68 C42.6792266,39.68 40.96,41.3992266 40.96,43.52 C40.96,45.6407734 42.6792266,47.36 44.8,47.36 C45.2583017,47.36 45.6978514,47.2797126 46.105351,47.1324355 L46.5728895,47.6166637 L57.3848776,58.8146071 Z M41.0565079,20.0592792 C40.9933563,19.7830176 40.96,19.4954042 40.96,19.2 C40.96,17.0792266 42.6792266,15.36 44.8,15.36 C46.9207734,15.36 48.64,17.0792266 48.64,19.2 C48.64,21.3207734 46.9207734,23.04 44.8,23.04 C44.4074786,23.04 44.0287127,22.981106 43.6720566,22.8716724 L22.9465497,42.6742087 C23.0077199,42.9463396 23.04,43.2294001 23.04,43.52 C23.04,45.6407734 21.3207734,47.36 19.2,47.36 C17.0792266,47.36 15.36,45.6407734 15.36,43.52 C15.36,41.3992266 17.0792266,39.68 19.2,39.68 C19.5972865,39.68 19.9804816,39.7403326 20.3409228,39.8523355 L41.0565079,20.0592792 Z" id="path-1"></path>
        <mask id="mask-2" maskContentUnits="userSpaceOnUse" maskUnits="objectBoundingBox" x="0" y="0" width="53.76" height="53.76" fill="white">
            <use xlink:href="#path-1"></use>
        </mask>
    </defs>
    <g id="Page-1" stroke="none" stroke-width="1" fill="none" fill-rule="evenodd">
        <g id="64x64">
            <g id="edit">
                <use id="Combined-Shape" stroke="#000000" mask="url(#mask-2)" stroke-width="6" xlink:href="#path-1"></use>
                <ellipse id="Oval-17" fill="#000000" cx="19.2" cy="19.2" rx="1.28" ry="1.28"></ellipse>
                <ellipse id="Oval-17" fill="#000000" cx="19.2" cy="43.52" rx="1.28" ry="1.28"></ellipse>
                <circle id="Oval-17" fill="#000000" cx="44.8" cy="43.52" r="1.28"></circle>
                <circle id="Oval-17" fill="#000000" cx="44.8" cy="19.2" r="1.28"></circle>
            </g>
        </g>
    </g>
</svg>